<svg fill="none" height="24" viewBox="0 0 24 24" width="24" xmlns="http://www.w3.org/2000/svg"><path clip-rule="evenodd" d="m2.34297 13.7926c-.98792-1.0103-1.437292-2.4939-1.32547-3.81064.10005-1.17825.63659-2.36793 1.72129-3.1473.94491-.67893 2.19393-.96722 3.68985-.78712.64946-1.28926 1.51475-2.17255 2.52241-2.64802 1.17415-.55403 2.41535-.49343 3.47375-.05376 1.5085.62668 2.7651 2.09283 3.0105 3.83446.2239.05861.4432.13069.6567.21502 2.1801.8611 3.9707 3.13356 3.6853 5.70066 2.0246.4901 3.1889 2.1811 3.222 3.9132.019.9979-.339 2.0143-1.1206 2.7797-.7871.7709-1.9238 1.2112-3.3261 1.2112h-11.37554c-3.55772 0-5.40104-3.1151-5.15446-5.8179.04299-.4712.14849-.9405.32037-1.3895zm1.14966-1.7415c.19109-.1832.40149-.354.63171-.5097 1.16755-.7897 2.73493-1.1193 4.65408-.8608.81667-1.60392 1.90918-2.66901 3.15508-3.22716.4688-.21003.9465-.34236 1.4222-.4067-.2522-.81543-.8876-1.5173-1.6982-1.854-.6051-.2514-1.2527-.26774-1.85298.01553-.60394.28497-1.28571.93388-1.82094 2.24975-.20163.4957-.73154.77318-1.24914.66537-1.42194-.29617-2.30701-.03931-2.82863.33548-.52837.37964-.83569.98813-.89549 1.69233-.06029.71.12043 1.3852.48231 1.8999zm6.82487.0584c.6887-1.6132 1.5859-2.45106 2.4336-2.83083.8504-.38092 1.7678-.35443 2.6062-.02328 1.7544.69299 2.8581 2.53641 2.2935 4.24871-.233.7066.2855 1.4293 1.0164 1.4522 1.572.0492 2.3138 1.1145 2.3324 2.091.0095.4963-.1662.9658-.5203 1.3127-.3487.3415-.9497.64-1.9267.64h-11.37554c-2.11086 0-3.32866-1.8174-3.16273-3.6362.07976-.8743.48669-1.6627 1.23054-2.1658.74521-.504 1.96669-.8133 3.84003-.4391.50799.1015 1.0267-.1671 1.2326-.6494z" fill="#0f0f0f" fill-rule="evenodd"/></svg>