<svg fill="none" height="24" viewBox="0 0 24 24" width="24" xmlns="http://www.w3.org/2000/svg"><g clip-rule="evenodd" fill="#0f0f0f" fill-rule="evenodd"><path d="m5.99993 1c-.34717 0-.63654.17976-.83841.45177-.07084.09603-.23479.32078-.45252.63528-.28958.41829-.67724.99964-1.06653 1.64846-.38742.64572-.78712 1.37588-1.09288 2.08933-.29278.68318-.55066 1.4251-.54959 2.17722.00062.21107.02582.4232.06046.63105.05778.34675.1752.82436.42005 1.31408.2468.49361.63272 1.01771 1.23034 1.41611.60387.4026 1.36409.6367 2.28909.6367s1.68522-.2341 2.2891-.6367c.59762-.3984.98356-.9224 1.23038-1.41608.24486-.48971.36231-.96732.4201-1.31407.03468-.2081.0602-.42076.06048-.63214.0004-.75213-.25677-1.4929-.54962-2.17619-.30577-.71345-.70548-1.44361-1.09292-2.08932-.3893-.64882-.77698-1.23017-1.06657-1.64847-.21774-.31449-.38169-.53924-.45254-.63528-.20188-.272-.49125-.451753-.83842-.45175zm1.61217 5.61268c-.25674-.59905-.60704-1.24389-.96962-1.84818-.2205-.36749-.44161-.71349-.64252-1.01699-.20091.3035-.422.64949-.64249 1.01698-.36256.60428-.71285 1.24912-.96958 1.84817l-.01454.03391c-.1767.41193-.38559.89891-.37317 1.35385.01198.35992.10872.73139.26921 1.05239.12817.25636.30473.4823.55086.64639.23987.15992.60465.3008 1.17969.3008s.93983-.14088 1.17972-.30081c.24615-.16409.42272-.39004.55091-.64641.1605-.32099.25727-.69248.26925-1.0524.01243-.45487-.19645-.94181-.37314-1.3537z"/><path d="m17.9999 1c-.3471 0-.6365.17976-.8384.45177-.0708.09603-.2348.32078-.4525.63528-.2896.41829-.6772.99964-1.0665 1.64846-.3874.64572-.7871 1.37588-1.0929 2.08933-.2928.68318-.5507 1.4251-.5496 2.17722.0006.21107.0258.4232.0605.63105.0577.34675.1752.82436.42 1.31408.2468.49361.6327 1.01771 1.2303 1.41611.6039.4026 1.3641.6367 2.2891.6367s1.6853-.2341 2.2891-.6367c.5977-.3984.9836-.9224 1.2304-1.41608.2449-.48971.3623-.96732.4201-1.31407.0347-.2081.0602-.42076.0605-.63214.0004-.75213-.2568-1.4929-.5496-2.17619-.3058-.71345-.7055-1.44361-1.0929-2.08932-.3893-.64882-.777-1.23017-1.0666-1.64847-.2177-.31449-.3817-.53924-.4525-.63528-.2019-.272-.4913-.451753-.8385-.45175zm1.6122 5.61268c-.2567-.59905-.607-1.24389-.9696-1.84818-.2205-.36749-.4416-.71349-.6425-1.01699-.2009.3035-.422.64949-.6425 1.01698-.3626.60428-.7129 1.24912-.9696 1.84817l-.0145.0339c-.1767.41194-.3856.89892-.3732 1.35386.012.35992.1087.73139.2692 1.05239.1282.25636.3047.4823.5509.64639.2398.15992.6046.3008 1.1796.3008.5751 0 .9399-.14088 1.1798-.30081.2461-.16409.4227-.39004.5509-.64641.1605-.32099.2572-.69248.2692-1.0524.0125-.45486-.1964-.9418-.3731-1.35368z"/><path d="m11.1615 12.4518c.2019-.272.4913-.4518.8384-.4518.3472 0 .6366.1797.8385.4518.0708.096.2348.3207.4525.6352.2896.4183.6773.9997 1.0666 1.6485.3874.6457.7871 1.3759 1.0929 2.0893.2928.6833.55 1.4241.5496 2.1762-.0003.2114-.0258.4241-.0605.6322-.0578.3467-.1752.8243-.4201 1.314-.2468.4937-.6327 1.0177-1.2304 1.4161-.6038.4026-1.3641.6367-2.2891.6367s-1.6852-.2341-2.28905-.6367c-.59762-.3984-.98354-.9225-1.23034-1.4161-.24485-.4897-.36227-.9673-.42005-1.3141-.03464-.2078-.05984-.42-.06046-.631-.00107-.7522.25681-1.4941.54959-2.1773.30576-.7134.70546-1.4436 1.09288-2.0893.38933-.6488.77693-1.2302 1.06653-1.6485.2177-.3144.3817-.5392.4525-.6352zm1.481 3.3127c.3626.6043.7129 1.2491.9696 1.8482.0048.0113.0097.0226.0146.034.1767.4119.3856.8988.3731 1.3537-.012.3599-.1087.7314-.2692 1.0524-.1282.2563-.3048.4823-.5509.6464-.2399.1599-.6047.3008-1.1798.3008-.575 0-.9398-.1409-1.1796-.3008-.2462-.1641-.4227-.39-.5509-.6464-.1605-.321-.2572-.6925-.2692-1.0524-.01244-.4549.1965-.9419.3732-1.3538.0048-.0114.0097-.0227.0145-.0339.2567-.5991.607-1.2439.9696-1.8482.2205-.3675.4416-.7135.6425-1.017.2009.3035.422.6495.6425 1.017z"/></g></svg>