<svg fill="none" height="24" viewBox="0 0 24 24" width="24" xmlns="http://www.w3.org/2000/svg"><g clip-rule="evenodd" fill="#0f0f0f" fill-rule="evenodd"><path d="m11.9944 15.5c1.933 0 3.5-1.567 3.5-3.5s-1.567-3.5-3.5-3.5-3.50001 1.567-3.50001 3.5 1.56701 3.5 3.50001 3.5zm0-2.0056c-.8253 0-1.4944-.6691-1.4944-1.4944s.6691-1.4944 1.4944-1.4944 1.4944.6691 1.4944 1.4944-.6691 1.4944-1.4944 1.4944z"/><path d="m12 5c-4.81121 0-8.0833 2.60905-9.8107 4.47978-1.331908 1.44242-1.331907 3.59802 0 5.04042 1.7274 1.8708 4.99949 4.4798 9.8107 4.4798 4.8112 0 8.0833-2.609 9.8107-4.4798 1.3319-1.4424 1.3319-3.598 0-5.04042-1.7274-1.87073-4.9995-4.47978-9.8107-4.47978zm-8.34132 5.8366c1.52964-1.65658 4.30822-3.8366 8.34132-3.8366s6.8117 2.18002 8.3413 3.8366c.6244.6762.6244 1.6506 0 2.3268-1.5296 1.6566-4.3082 3.8366-8.3413 3.8366s-6.81168-2.18-8.34132-3.8366c-.62442-.6762-.62442-1.6506 0-2.3268z"/></g></svg>