<svg fill="none" height="24" viewBox="0 0 24 24" width="24" xmlns="http://www.w3.org/2000/svg"><g fill="#0f0f0f"><path d="m14.993 2.99997c-.5491-.00376-.993-.45002-.993-.99998 0-.53815.467-1.001584 1.0045-.99999.666.00699 1.3497.18404 1.9427.48057.4936.24681 1.0177.63274 1.4161 1.23035.4026.60387.6367 1.36409.6367 2.28907 0 .92499-.2341 1.68521-.6367 2.28908-.3984.59761-.9225.98354-1.4161 1.23035-.591.2955-1.2801.47858-1.9451.48057h-6.0021c-.55228 0-1-.44771-1-1 0-.55228.44772-1 1-1l6.0004-.00017c.3599-.01199.7314-.10875 1.0524-.26925.2564-.12819.4823-.30476.6464-.5509.1599-.23988.3008-.60466.3008-1.17968 0-.57501-.1409-.93979-.3008-1.17967-.1641-.24614-.39-.42271-.6464-.5509-.3226-.16128-.6975-.25955-1.0598-.26945z"/><path d="m2 7c-.55228 0-1 .44772-1 1s.44772 1 1 1h4c.55228 0 1-.44772 1-1s-.44772-1-1-1z"/><path d="m2 11c-.55228 0-1 .4477-1 1s.44772 1 1 1h10c.5523 0 1-.4477 1-1s-.4477-1-1-1z"/><path d="m2 15c-.55228 0-1 .4477-1 1s.44772 1 1 1h3c.55228 0 1-.4477 1-1s-.44772-1-1-1z"/><path d="m18 18c0-.5499.4439-.9962.993-1 .3623-.0099.7372-.1081 1.0598-.2694.2564-.1282.4823-.3048.6464-.5509.1599-.2399.3008-.6047.3008-1.1797s-.1409-.9398-.3008-1.1797c-.1641-.2461-.39-.4227-.6464-.5509-.321-.1605-.6925-.2572-1.0524-.2692l-4.0004-.0002c-.5523 0-1-.4477-1-1s.4477-1 1-1h4.0021c.665.002 1.3541.1851 1.9451.4806.4936.2468 1.0177.6327 1.4161 1.2303.4026.6039.6367 1.3641.6367 2.2891s-.2341 1.6852-.6367 2.2891c-.3984.5976-.9225.9835-1.4161 1.2303-.593.2966-1.2767.4736-1.9427.4806-.5375.0016-1.0045-.4618-1.0045-1z"/><path d="m11.993 21c-.5491.0038-.993.4501-.993 1 0 .5382.467 1.0016 1.0045 1 .666-.007 1.3497-.184 1.9427-.4806.4936-.2468 1.0177-.6327 1.4161-1.2303.4026-.6039.6367-1.3641.6367-2.2891s-.2341-1.6852-.6367-2.2891c-.3984-.5976-.9225-.9835-1.4161-1.2303-.591-.2955-1.2801-.4786-1.9451-.4806h-4.0021c-.55228 0-1 .4477-1 1s.44772 1 1 1l4.0004.0002c.3599.012.7314.1087 1.0524.2692.2564.1282.4823.3048.6464.5509.1599.2399.3008.6047.3008 1.1797s-.1409.9398-.3008 1.1797c-.1641.2461-.39.4227-.6464.5509-.3226.1613-.6975.2595-1.0598.2694z"/></g></svg>